<svg width="24" height="24" viewBox="0 0 24 24" fill="none" xmlns="http://www.w3.org/2000/svg">
<path d="M18.5982 20.1242C20.9219 18.198 22.4041 15.2751 22.4041 12.0027C22.4041 6.20222 17.747 1.5 12.0021 1.5C6.25724 1.5 1.6001 6.20222 1.6001 12.0027C1.6001 15.8585 3.65795 19.229 6.72524 21.0556C6.69667 21.0335 6.66822 21.0112 6.6399 20.9888C7.23997 21.3824 7.75105 21.6479 8.09182 21.8249C8.17053 21.8657 8.24016 21.9019 8.2997 21.9338C8.89913 22.2554 13.1305 23.1842 14.964 21.6123C16.5657 20.2393 14.7773 19.3024 13.5943 18.6826C13.4229 18.5929 13.2643 18.5098 13.1305 18.4329C12.35 17.9849 12.8091 16.9961 13.2079 16.4527C13.9024 17.0861 14.7723 17.2707 15.3038 16.8444C15.9297 16.3422 15.8492 15.1828 15.1239 14.2547C15.0011 14.0977 14.8678 13.9573 14.7279 13.8349C14.759 13.7864 14.7889 13.7369 14.8173 13.6865L17.1855 14.6462L20.7116 13.9675L21.0642 11.5383L20.4648 13.646L17.256 13.9675L15.1498 12.7939C15.1671 12.7087 15.1808 12.6221 15.1908 12.5344L17.7497 12.4671L20.4648 11.0024L20.2885 8.6447L20.0416 10.8953L17.5381 12.0027L15.1237 11.4515C15.1039 11.37 15.0808 11.2897 15.0546 11.211L17.6086 10.4666L19.4069 8.25174L18.3138 6.00116L19.0191 8.25174L17.3265 9.96647L14.5777 10.3146C14.5201 10.2398 14.4591 10.1677 14.3949 10.0988L17.0444 8.50181L17.6086 6.00116L16.1982 4.57222L17.1855 5.89399L16.586 8.07312C15.7085 8.49646 14.0344 9.30171 13.6135 9.49565C13.1956 9.27167 12.7193 9.14483 12.2137 9.14483C11.7081 9.14483 11.2317 9.27167 10.8139 9.49565C10.393 9.30171 8.71881 8.49646 7.8413 8.07312L7.24187 5.89399L8.22918 4.57222L6.81873 6.00116L7.38291 8.50181L10.0324 10.0988C9.96827 10.1677 9.90724 10.2398 9.8496 10.3146L7.10082 9.96647L5.40829 8.25174L6.11351 6.00116L5.02042 8.25174L6.81873 10.4666L9.37279 11.211C9.34658 11.2897 9.32348 11.37 9.30362 11.4515L6.88926 12.0027L4.38572 10.8953L4.13889 8.6447L3.96259 11.0024L6.67769 12.4671L9.23653 12.5344C9.24656 12.6221 9.26027 12.7087 9.2775 12.7939L7.17134 13.9675L3.96259 13.646L3.36315 11.5383L3.71576 13.9675L7.24187 14.6462L9.61006 13.6865C9.65374 13.7639 9.70069 13.8392 9.75072 13.9121C9.65796 13.9958 9.56824 14.0873 9.48273 14.1861C8.71251 15.0763 8.57486 16.2302 9.17528 16.7634C9.66261 17.1962 10.4864 17.0871 11.1912 16.5546C11.1789 16.5991 11.1671 16.6418 11.1558 16.6825C10.909 17.5756 10.8738 18.4329 11.5085 18.7544C12.1432 19.076 13.1305 19.7904 13.0247 20.2191C13.018 20.2461 13.0121 20.2737 13.006 20.3018C12.9161 20.7198 12.8076 21.2236 10.098 20.755C7.2066 20.2548 5.33777 18.3258 4.10363 16.6825C3.26263 15.5627 2.90774 13.7931 2.79924 12.7119C2.83724 7.144 7.0061 2.64315 12.1432 2.64315C17.3038 2.64315 21.4873 7.18544 21.4873 12.7886C21.4873 15.6734 20.3784 18.2769 18.5982 20.1242Z" fill="white"/>
</svg>
